<svg xmlns="http://www.w3.org/2000/svg" width="128" height="128" viewBox="0 0 128 128">
<g>
<path d="M 36.20,121.80 L 35.87,121.47 L 35.35,120.55 L 35.00,119.23 L 35.00,119.13 L 35.20,118.69 L 35.34,118.43 L 35.79,117.69 L 36.04,117.29 L 36.71,116.29 L 37.07,115.76 L 37.93,114.53 L 38.84,113.26 L 41.11,110.21 L 44.98,105.18 L 54.97,92.50 L 28.45,92.00 L 25.68,91.95 L 20.95,91.85 L 18.71,91.79 L 14.94,91.69 L 13.16,91.63 L 10.25,91.51 L 8.89,91.45 L 6.72,91.31 L 5.72,91.24 L 4.19,91.07 L 3.49,90.98 L 2.49,90.78 L 2.05,90.67 L 1.48,90.43 L 0.98,90.00 L 0.67,89.52 L 0.28,88.63 L 0.13,88.20 L 0.04,87.43 L 0.03,87.05 L 0.24,86.40 L 0.38,86.08 L 0.87,85.55 L 1.16,85.29 L 1.94,84.88 L 2.37,84.68 L 3.44,84.39 L 4.01,84.26 L 5.36,84.10 L 7.70,84.00 L 13.00,84.00 L 13.00,59.00 L 13.00,34.00 L 8.61,34.00 L 7.23,34.00 L 4.86,33.54 L 3.76,33.25 L 2.08,32.29 L 1.34,31.77 L 0.51,30.45 L 0.37,30.10 L 0.27,29.36 L 0.44,28.19 L 0.65,27.53 L 1.08,26.69 L 1.27,26.51 L 1.94,26.24 L 2.35,26.12 L 3.64,25.95 L 4.39,25.87 L 6.54,25.77 L 7.15,25.75 L 8.55,25.72 L 9.29,25.71 L 11.00,25.68 L 11.89,25.67 L 13.92,25.66 L 14.98,25.65 L 17.36,25.64 L 18.60,25.63 L 21.38,25.62 L 26.00,25.60 L 47.50,25.50 L 48.02,19.50 L 48.10,18.62 L 48.30,17.05 L 48.41,16.30 L 48.69,14.97 L 48.99,13.69 L 49.91,11.69 L 50.44,10.75 L 51.96,9.21 L 55.08,7.08 L 55.97,6.57 L 57.96,5.86 L 58.97,5.54 L 61.14,5.19 L 62.23,5.05 L 64.46,5.04 L 65.58,5.07 L 67.79,5.38 L 68.88,5.58 L 70.96,6.20 L 71.97,6.54 L 73.81,7.45 L 74.69,7.94 L 76.20,9.12 L 77.98,11.17 L 78.18,11.49 L 78.59,12.55 L 78.79,13.13 L 79.17,14.58 L 79.98,19.50 L 80.50,25.50 L 102.81,25.68 L 104.22,25.69 L 106.79,25.72 L 108.04,25.73 L 110.33,25.77 L 112.55,25.80 L 116.20,25.90 L 117.91,25.96 L 120.63,26.13 L 121.89,26.22 L 123.81,26.46 L 124.69,26.60 L 125.94,26.95 L 126.50,27.13 L 127.22,27.60 L 127.52,27.85 L 127.84,28.47 L 128.00,29.57 L 128.00,30.13 L 127.26,31.22 L 126.79,31.74 L 125.31,32.63 L 124.50,33.05 L 122.51,33.63 L 119.26,34.00 L 114.97,34.00 L 115.23,58.75 L 115.50,83.50 L 120.47,83.81 L 121.33,83.87 L 122.81,84.05 L 123.52,84.15 L 124.71,84.43 L 125.27,84.58 L 126.18,84.97 L 126.59,85.17 L 127.20,85.65 L 127.47,85.91 L 127.80,86.50 L 127.93,86.81 L 127.96,87.50 L 127.95,87.86 L 127.71,88.67 L 127.02,90.00 L 126.92,90.16 L 126.52,90.43 L 126.28,90.56 L 125.51,90.78 L 125.06,90.89 L 123.81,91.07 L 123.12,91.16 L 121.28,91.31 L 120.28,91.39 L 117.75,91.51 L 116.39,91.58 L 113.06,91.69 L 111.29,91.74 L 107.05,91.85 L 99.55,92.00 L 73.03,92.50 L 83.02,105.18 L 84.39,106.92 L 86.89,110.21 L 88.09,111.79 L 90.07,114.53 L 90.52,115.17 L 91.29,116.29 L 91.65,116.82 L 92.21,117.69 L 92.47,118.10 L 92.80,118.69 L 93.00,119.23 L 93.00,119.70 L 92.65,120.62 L 92.42,121.06 L 91.71,121.83 L 91.33,122.18 L 90.39,122.68 L 88.87,123.00 L 88.63,123.00 L 87.90,122.64 L 87.51,122.42 L 86.56,121.68 L 83.45,118.50 L 83.00,117.95 L 82.24,117.04 L 81.88,116.62 L 81.24,115.94 L 80.62,115.31 L 79.47,114.60 L 78.87,114.31 L 77.32,114.09 L 76.88,114.05 L 75.83,114.01 L 73.94,114.00 L 68.12,114.00 L 67.81,117.65 L 67.73,118.54 L 67.33,119.99 L 67.10,120.66 L 66.45,121.67 L 66.10,122.11 L 65.29,122.67 L 64.88,122.89 L 64.00,123.01 L 63.56,123.01 L 62.71,122.67 L 62.29,122.45 L 61.55,121.67 L 61.20,121.22 L 60.67,119.99 L 60.19,117.65 L 59.88,114.00 L 54.06,114.00 L 53.35,114.00 L 52.17,114.01 L 51.61,114.02 L 50.68,114.09 L 49.81,114.16 L 48.53,114.60 L 47.92,114.89 L 46.76,115.94 L 46.45,116.26 L 45.76,117.04 L 44.55,118.50 L 43.62,119.64 L 41.99,121.24 L 41.20,121.93 L 39.81,122.68 L 39.13,122.94 L 37.91,122.85 L 37.31,122.70 M 60.00,103.00 L 60.00,102.17 L 59.87,100.88 L 59.83,100.61 L 59.74,100.24 L 59.57,100.00 L 59.51,100.00 L 59.23,100.24 L 59.07,100.39 L 58.64,100.88 L 57.00,103.00 L 54.86,106.00 L 57.43,106.00 L 57.98,106.00 L 58.76,105.89 L 59.10,105.81 L 59.54,105.46 L 59.72,105.24 L 59.91,104.55 L 59.98,104.15 M 71.00,103.00 L 70.41,102.17 L 69.36,100.88 L 69.13,100.61 L 68.77,100.24 L 68.43,100.00 L 68.37,100.00 L 68.26,100.24 L 68.21,100.39 L 68.13,100.88 L 68.00,103.00 L 68.00,103.64 L 68.09,104.55 L 68.16,104.95 L 68.46,105.46 L 68.65,105.67 L 69.24,105.89 L 70.57,106.00 L 73.14,106.00 L 71.00,103.00 M 57.06,76.44 L 57.94,75.60 L 59.33,73.38 L 59.97,72.17 L 60.87,69.17 L 61.27,67.56 L 61.72,63.68 L 61.80,62.65 L 61.89,60.41 L 61.90,56.77 L 61.88,55.85 L 61.87,54.30 L 61.86,53.56 L 61.89,52.34 L 61.92,51.18 L 62.14,49.64 L 62.29,48.95 L 62.81,48.01 L 64.03,46.78 L 64.65,46.27 L 65.96,45.58 L 67.40,45.30 L 67.55,45.35 L 67.89,46.05 L 68.06,46.49 L 68.41,47.84 L 68.58,48.57 L 68.89,50.38 L 69.28,53.42 L 69.48,55.49 L 70.22,59.25 L 70.63,61.06 L 71.72,64.15 L 72.30,65.60 L 73.67,67.82 L 74.02,68.32 L 74.77,69.11 L 75.94,69.97 L 76.67,70.36 L 78.51,70.79 L 79.46,70.94 L 81.49,70.91 L 82.49,70.84 L 84.36,70.38 L 86.62,69.23 L 87.59,68.44 L 89.12,66.80 L 89.81,65.97 L 90.75,64.34 L 91.13,63.53 L 91.41,62.03 L 91.04,60.07 L 90.65,59.35 L 89.51,58.49 L 88.90,58.15 L 87.49,58.05 L 86.79,58.09 L 85.39,58.73 L 83.59,60.50 L 83.18,61.13 L 82.41,62.01 L 82.04,62.38 L 81.34,62.75 L 81.00,62.87 L 80.38,62.73 L 80.08,62.59 L 79.52,61.93 L 79.25,61.53 L 78.76,60.35 L 78.52,59.69 L 78.10,57.98 L 77.89,57.06 L 77.53,54.82 L 77.04,50.87 L 76.89,49.32 L 76.55,46.90 L 76.37,45.78 L 75.94,44.06 L 75.70,43.26 L 75.12,42.03 L 73.99,40.49 L 73.18,39.62 L 71.43,38.44 L 70.53,37.94 L 68.56,37.49 L 67.55,37.35 L 65.32,37.63 L 61.62,38.84 L 60.83,39.19 L 59.49,39.92 L 58.85,40.29 L 57.78,41.11 L 57.27,41.54 L 56.44,42.53 L 56.06,43.05 L 55.45,44.27 L 55.17,44.91 L 54.75,46.43 L 54.56,47.23 L 54.31,49.10 L 54.19,50.09 L 54.07,52.39 L 54.00,56.39 L 54.00,57.65 L 53.96,59.89 L 53.93,60.96 L 53.82,62.85 L 53.76,63.75 L 53.59,65.30 L 53.49,66.04 L 53.24,67.28 L 53.11,67.87 L 52.78,68.84 L 52.60,69.29 L 52.18,70.01 L 50.58,71.33 L 50.25,71.46 L 49.63,71.46 L 49.33,71.41 L 48.75,71.07 L 48.47,70.86 L 47.93,70.18 L 47.67,69.80 L 47.18,68.78 L 46.94,68.22 L 46.49,66.85 L 46.26,66.12 L 45.85,64.40 L 45.65,63.50 L 45.27,61.42 L 44.74,57.92 L 44.60,56.79 L 44.34,54.92 L 44.22,54.05 L 43.99,52.64 L 43.88,51.98 L 43.66,50.96 L 43.55,50.49 L 43.31,49.79 L 43.06,49.15 L 42.39,48.57 L 40.91,48.20 L 40.35,48.13 L 39.40,48.14 L 38.95,48.17 L 38.21,48.40 L 37.86,48.54 L 37.32,49.01 L 37.07,49.28 L 36.72,50.04 L 36.57,50.46 L 36.39,51.54 L 36.32,52.12 L 36.31,53.56 L 36.32,54.32 L 36.45,56.14 L 36.81,59.35 L 37.11,61.64 L 38.07,66.48 L 38.32,67.62 L 38.85,69.63 L 39.59,71.94 L 40.00,72.95 L 41.03,74.69 L 41.58,75.51 L 42.85,76.86 L 43.51,77.49 L 44.97,78.43 L 45.72,78.85 L 47.30,79.37 L 48.11,79.58 L 49.77,79.66 L 50.60,79.65 L 52.27,79.29 L 53.10,79.05 L 54.73,78.22 L 55.53,77.75 M 72.00,21.06 L 72.00,19.60 L 71.56,17.35 L 71.26,16.32 L 70.16,14.85 L 69.52,14.21 L 67.68,13.44 L 64.00,13.00 L 62.56,13.00 L 60.32,13.44 L 59.30,13.74 L 57.84,14.85 L 57.20,15.49 L 56.44,17.35 L 56.00,21.06 L 56.00,26.00 L 64.00,26.00 L 72.00,26.00 L 72.00,21.06 Z" fill="rgba(0,0,0,1)"/>
</g>
</svg>